<?xml version="1.0" standalone="no"?>
<!DOCTYPE svg PUBLIC "-//W3C//DTD SVG 20010904//EN"
 "http://www.w3.org/TR/2001/REC-SVG-20010904/DTD/svg10.dtd">
<svg version="1.0" xmlns="http://www.w3.org/2000/svg"
 width="700.000000pt" height="700.000000pt" viewBox="0 0 700.000000 700.000000"
 preserveAspectRatio="xMidYMid meet">
<metadata>
Created by potrace 1.11, written by Peter Selinger 2001-2013
</metadata>
<g transform="translate(0.000000,700.000000) scale(0.100000,-0.100000)"
fill="#000000" stroke="none">
<path d="M2300 5539 c-223 -18 -393 -132 -490 -327 -57 -115 -59 -141 -60
-658 l0 -471 431 1 c277 1 433 -3 438 -9 4 -5 7 -723 6 -1595 -1 -872 0 -1588
2 -1593 3 -6 57 29 108 71 6 4 246 184 534 400 l524 392 36 -27 c20 -15 41
-31 46 -35 6 -5 37 -29 70 -54 33 -25 70 -53 82 -62 12 -9 31 -24 43 -32 12
-8 207 -154 433 -324 227 -170 422 -315 434 -323 l21 -14 -2 2098 -2 2098 -22
60 c-76 203 -231 345 -428 391 -61 14 -187 16 -1099 17 -566 1 -1064 -1 -1105
-4z m321 -296 c3 -18 5 -849 2 -858 -2 -6 -107 -10 -291 -10 l-287 0 -1 315
c-1 279 1 322 17 374 27 88 99 154 194 177 40 9 365 11 366 2z"/>
</g>
</svg>
